<svg width="32" height="32" viewBox="0 0 32 32" xmlns="http://www.w3.org/2000/svg">
<g>
<path d="M27.9993 4C28.353 4 28.6921 4.14048 28.9422 4.39052C29.1922 4.64057 29.3327 4.97971 29.3327 5.33333V26.6667C29.3327 27.0203 29.1922 27.3594 28.9422 27.6095C28.6921 27.8595 28.353 28 27.9993 28H3.99935C3.64573 28 3.30659 27.8595 3.05654 27.6095C2.80649 27.3594 2.66602 27.0203 2.66602 26.6667V5.33333C2.66602 4.97971 2.80649 4.64057 3.05654 4.39052C3.30659 4.14048 3.64573 4 3.99935 4H27.9993ZM12.5313 10.6667H9.86468L5.59802 21.3333H8.47002L9.00335 20H13.39L13.9233 21.3333H16.7967L12.5313 10.6667ZM25.3327 10.6667H22.666V13.3333H21.3327C20.2915 13.3323 19.2909 13.7374 18.5436 14.4624C17.7963 15.1874 17.3611 16.1752 17.3306 17.216C17.3 18.2567 17.6765 19.2684 18.38 20.036C19.0835 20.8036 20.0585 21.2666 21.098 21.3267L21.3327 21.3333H25.3327V10.6667ZM22.666 16V18.6667H21.3327L21.1767 18.6573C20.8526 18.6188 20.5539 18.4627 20.3372 18.2187C20.1205 17.9747 20.0008 17.6597 20.0008 17.3333C20.0008 17.007 20.1205 16.692 20.3372 16.448C20.5539 16.2039 20.8526 16.0479 21.1767 16.0093L21.3327 16H22.666ZM11.198 14.5133L12.3247 17.3333H10.0687L11.198 14.5133Z" fill="white"/>
</g>
<defs>
<clipPath id="clip0_160_17355">
<rect width="32" height="32" fill="white"/>
</clipPath>
</defs>
</svg>
