<svg width="20" height="20" viewBox="0 0 20 20" fill="none" xmlns="http://www.w3.org/2000/svg">
<g clip-path="url(#clip0_611_7417)">
<rect width="20" height="20" rx="4" fill="white"/>
<g clip-path="url(#clip1_611_7417)">
<path d="M9.8741 8.0085C9.87212 8.02411 9.87212 8.04182 9.87212 8.05922C9.87212 8.12683 9.88586 8.19185 9.91069 8.25166L9.93288 8.29652L10.0206 8.51692L10.4764 9.65843L10.8739 10.6553C10.9873 10.8565 11.1689 11.0145 11.388 11.0987L11.456 11.1232C11.4587 11.124 11.4631 11.124 11.4668 11.125L12.5563 11.4928V11.4937L12.9729 11.6341L13.0013 11.6435C13.0023 11.6435 13.004 11.6445 13.005 11.6445C13.0871 11.6648 13.1676 11.6921 13.2444 11.7254C13.422 11.8007 13.5831 11.908 13.7207 12.0388C13.7761 12.0908 13.8271 12.1469 13.8743 12.2067C13.9145 12.2569 13.9512 12.3097 13.9843 12.3647C14.1296 12.6017 14.2131 12.8803 14.2131 13.1769C14.2131 13.2299 14.2104 13.2811 14.2049 13.3331C14.2031 13.356 14.2003 13.3781 14.1968 13.4001V13.4019C14.1932 13.4251 14.1887 13.4492 14.1842 13.4727C14.1796 13.4956 14.1753 13.5184 14.17 13.5412C14.1692 13.5438 14.1682 13.5465 14.1672 13.5491C14.1622 13.5722 14.1559 13.595 14.1495 13.6179C14.1437 13.6395 14.1364 13.6618 14.1283 13.6827C14.1211 13.7057 14.1128 13.7282 14.1033 13.7503C14.0952 13.7731 14.0856 13.7962 14.0748 13.818C14.0453 13.8848 14.0102 13.949 13.9708 14.0102C13.9201 14.0907 13.862 14.1666 13.7975 14.237C14.3088 13.6974 14.6486 13.0006 14.7332 12.2295C14.7475 12.103 14.7548 11.9748 14.7548 11.8457C14.7548 11.7633 14.7511 11.6817 14.7457 11.5998C14.6813 10.6751 14.2525 9.84812 13.598 9.25794C13.4175 9.09394 13.2204 8.94798 13.0083 8.82412L12.6076 8.62306L10.5774 7.60021C10.515 7.57394 10.4478 7.56044 10.3799 7.56055C10.117 7.56055 9.89993 7.75738 9.8741 8.0085Z" fill="#7F7F7F"/>
<path d="M9.8741 8.0085C9.87212 8.02411 9.87212 8.04182 9.87212 8.05922C9.87212 8.12683 9.88586 8.19185 9.91069 8.25166L9.93288 8.29652L10.0206 8.51692L10.4764 9.65843L10.8739 10.6553C10.9873 10.8565 11.1689 11.0145 11.388 11.0987L11.456 11.1232C11.4587 11.124 11.4631 11.124 11.4668 11.125L12.5563 11.4928V11.4937L12.9729 11.6341L13.0013 11.6435C13.0023 11.6435 13.004 11.6445 13.005 11.6445C13.0871 11.6648 13.1676 11.6921 13.2444 11.7254C13.422 11.8007 13.5831 11.908 13.7207 12.0388C13.7761 12.0908 13.8271 12.1469 13.8743 12.2067C13.9145 12.2569 13.9512 12.3097 13.9843 12.3647C14.1296 12.6017 14.2131 12.8803 14.2131 13.1769C14.2131 13.2299 14.2104 13.2811 14.2049 13.3331C14.2031 13.356 14.2003 13.3781 14.1968 13.4001V13.4019C14.1932 13.4251 14.1887 13.4492 14.1842 13.4727C14.1796 13.4956 14.1753 13.5184 14.17 13.5412C14.1692 13.5438 14.1682 13.5465 14.1672 13.5491C14.1622 13.5722 14.1559 13.595 14.1495 13.6179C14.1437 13.6395 14.1364 13.6618 14.1283 13.6827C14.1211 13.7057 14.1128 13.7282 14.1033 13.7503C14.0952 13.7731 14.0856 13.7962 14.0748 13.818C14.0453 13.8848 14.0102 13.949 13.9708 14.0102C13.9201 14.0907 13.862 14.1666 13.7975 14.237C14.3088 13.6974 14.6486 13.0006 14.7332 12.2295C14.7475 12.103 14.7548 11.9748 14.7548 11.8457C14.7548 11.7633 14.7511 11.6817 14.7457 11.5998C14.6813 10.6751 14.2525 9.84812 13.598 9.25794C13.4175 9.09394 13.2204 8.94798 13.0083 8.82412L12.6076 8.62306L10.5774 7.60021C10.515 7.57394 10.4478 7.56044 10.3799 7.56055C10.117 7.56055 9.89993 7.75738 9.8741 8.0085Z" fill="url(#paint0_linear_611_7417)"/>
<path d="M6.25914 3.5C5.97024 3.50504 5.7383 3.73714 5.7383 4.02094V13.1078C5.73946 13.1712 5.7431 13.2338 5.74773 13.2973C5.75187 13.3308 5.75634 13.3656 5.76263 13.3994C5.89458 14.1287 6.54092 14.6822 7.32137 14.6822C7.59503 14.6822 7.85165 14.6137 8.07615 14.4948C8.07747 14.4938 8.07979 14.4925 8.08095 14.4925L8.16174 14.4445L8.48921 14.2553L8.90576 14.0127L8.90675 5.93889C8.90675 5.40235 8.63325 4.92936 8.21455 4.64834C8.20462 4.64248 8.19502 4.63631 8.18624 4.62932L6.56543 3.58875C6.48331 3.53543 6.38431 3.50195 6.27818 3.5H6.25914Z" fill="#7F7F7F"/>
<path d="M6.25914 3.5C5.97024 3.50504 5.7383 3.73714 5.7383 4.02094V13.1078C5.73946 13.1712 5.7431 13.2338 5.74773 13.2973C5.75187 13.3308 5.75634 13.3656 5.76263 13.3994C5.89458 14.1287 6.54092 14.6822 7.32137 14.6822C7.59503 14.6822 7.85165 14.6137 8.07615 14.4948C8.07747 14.4938 8.07979 14.4925 8.08095 14.4925L8.16174 14.4445L8.48921 14.2553L8.90576 14.0127L8.90675 5.93889C8.90675 5.40235 8.63325 4.92936 8.21455 4.64834C8.20462 4.64248 8.19502 4.63631 8.18624 4.62932L6.56543 3.58875C6.48331 3.53543 6.38431 3.50195 6.27818 3.5H6.25914Z" fill="url(#paint1_linear_611_7417)"/>
<path d="M12.6859 11.8015L8.95939 13.9701L8.90575 14.0018V14.0133L8.4892 14.2555L8.1619 14.4452L8.0816 14.4928L8.07614 14.4954C7.85214 14.6149 7.59535 14.6825 7.32185 14.6825C6.54158 14.6825 5.89441 14.1294 5.76295 13.3997C5.82537 13.9335 6.01063 14.4304 6.29009 14.8632C6.86557 15.7551 7.83873 16.3755 8.96452 16.4833H9.65291C10.2618 16.4208 10.7703 16.1814 11.3047 15.8581L12.1265 15.3647C12.4967 15.1317 13.5015 14.5588 13.7975 14.2373C13.8619 14.1669 13.92 14.0915 13.9708 14.0107C14.0102 13.9493 14.0453 13.8851 14.0748 13.8183C14.0847 13.7955 14.0942 13.7734 14.1033 13.7508C14.1119 13.7284 14.12 13.7058 14.1283 13.6829C14.1437 13.639 14.1559 13.5949 14.1677 13.5496C14.1737 13.5237 14.1791 13.4982 14.1846 13.4729C14.2025 13.3771 14.2122 13.2788 14.2122 13.1769C14.2122 12.8803 14.1288 12.6017 13.9843 12.365C13.9511 12.3097 13.9147 12.2569 13.8743 12.207C13.8271 12.1469 13.7761 12.0911 13.7207 12.0391C13.5831 11.9083 13.4225 11.801 13.2444 11.7256C13.1676 11.6923 13.0874 11.6648 13.005 11.6448C13.004 11.6448 13.0023 11.6438 13.0013 11.6438L12.9729 11.6344L12.6859 11.8015Z" fill="#7F7F7F"/>
<path d="M12.6859 11.8015L8.95939 13.9701L8.90575 14.0018V14.0133L8.4892 14.2555L8.1619 14.4452L8.0816 14.4928L8.07614 14.4954C7.85214 14.6149 7.59535 14.6825 7.32185 14.6825C6.54158 14.6825 5.89441 14.1294 5.76295 13.3997C5.82537 13.9335 6.01063 14.4304 6.29009 14.8632C6.86557 15.7551 7.83873 16.3755 8.96452 16.4833H9.65291C10.2618 16.4208 10.7703 16.1814 11.3047 15.8581L12.1265 15.3647C12.4967 15.1317 13.5015 14.5588 13.7975 14.2373C13.8619 14.1669 13.92 14.0915 13.9708 14.0107C14.0102 13.9493 14.0453 13.8851 14.0748 13.8183C14.0847 13.7955 14.0942 13.7734 14.1033 13.7508C14.1119 13.7284 14.12 13.7058 14.1283 13.6829C14.1437 13.639 14.1559 13.5949 14.1677 13.5496C14.1737 13.5237 14.1791 13.4982 14.1846 13.4729C14.2025 13.3771 14.2122 13.2788 14.2122 13.1769C14.2122 12.8803 14.1288 12.6017 13.9843 12.365C13.9511 12.3097 13.9147 12.2569 13.8743 12.207C13.8271 12.1469 13.7761 12.0911 13.7207 12.0391C13.5831 11.9083 13.4225 11.801 13.2444 11.7256C13.1676 11.6923 13.0874 11.6648 13.005 11.6448C13.004 11.6448 13.0023 11.6438 13.0013 11.6438L12.9729 11.6344L12.6859 11.8015Z" fill="url(#paint2_linear_611_7417)"/>
<path opacity="0.15" d="M14.2122 13.1769C14.2122 13.2788 14.2025 13.3773 14.1844 13.473C14.1791 13.4984 14.1737 13.5237 14.1675 13.5494C14.1559 13.5949 14.1437 13.639 14.1283 13.683C14.1202 13.7058 14.1119 13.7285 14.1033 13.7507C14.0943 13.7734 14.0847 13.7955 14.0746 13.8183C14.0451 13.8849 14.0105 13.9491 13.971 14.0106C13.9203 14.0911 13.8622 14.1669 13.7975 14.2371C13.5015 14.5588 12.4967 15.1317 12.1265 15.3647L11.3047 15.8581C10.7022 16.2225 10.133 16.4805 9.41517 16.4982C9.38123 16.4992 9.34796 16.5 9.31501 16.5C9.26865 16.5 9.22296 16.4992 9.1771 16.4974C7.96157 16.4519 6.9015 15.8107 6.29009 14.8632C6.004 14.4208 5.82378 13.9204 5.76295 13.3997C5.89441 14.1294 6.54158 14.6825 7.32185 14.6825C7.59535 14.6825 7.85214 14.6147 8.07614 14.4954L8.0816 14.4926L8.1619 14.4452L8.4892 14.2555L8.90575 14.0133V14.0018L8.95939 13.9701L12.6859 11.8013L12.9729 11.6344L13.0013 11.6438C13.0022 11.6438 13.004 11.6448 13.005 11.6448C13.0874 11.6648 13.1677 11.6923 13.2444 11.7256C13.4225 11.801 13.5829 11.9083 13.7207 12.0391C13.7761 12.0912 13.8275 12.1473 13.8743 12.207C13.9147 12.2569 13.9511 12.3097 13.9843 12.365C14.1288 12.6017 14.2122 12.8803 14.2122 13.1769Z" fill="#7F7F7F"/>
<path opacity="0.15" d="M14.2122 13.1769C14.2122 13.2788 14.2025 13.3773 14.1844 13.473C14.1791 13.4984 14.1737 13.5237 14.1675 13.5494C14.1559 13.5949 14.1437 13.639 14.1283 13.683C14.1202 13.7058 14.1119 13.7285 14.1033 13.7507C14.0943 13.7734 14.0847 13.7955 14.0746 13.8183C14.0451 13.8849 14.0105 13.9491 13.971 14.0106C13.9203 14.0911 13.8622 14.1669 13.7975 14.2371C13.5015 14.5588 12.4967 15.1317 12.1265 15.3647L11.3047 15.8581C10.7022 16.2225 10.133 16.4805 9.41517 16.4982C9.38123 16.4992 9.34796 16.5 9.31501 16.5C9.26865 16.5 9.22296 16.4992 9.1771 16.4974C7.96157 16.4519 6.9015 15.8107 6.29009 14.8632C6.004 14.4208 5.82378 13.9204 5.76295 13.3997C5.89441 14.1294 6.54158 14.6825 7.32185 14.6825C7.59535 14.6825 7.85214 14.6147 8.07614 14.4954L8.0816 14.4926L8.1619 14.4452L8.4892 14.2555L8.90575 14.0133V14.0018L8.95939 13.9701L12.6859 11.8013L12.9729 11.6344L13.0013 11.6438C13.0022 11.6438 13.004 11.6448 13.005 11.6448C13.0874 11.6648 13.1677 11.6923 13.2444 11.7256C13.4225 11.801 13.5829 11.9083 13.7207 12.0391C13.7761 12.0912 13.8275 12.1473 13.8743 12.207C13.9147 12.2569 13.9511 12.3097 13.9843 12.365C14.1288 12.6017 14.2122 12.8803 14.2122 13.1769Z" fill="url(#paint3_linear_611_7417)"/>
</g>
</g>
<defs>
<linearGradient id="paint0_linear_611_7417" x1="10.477" y1="8.11723" x2="14.6237" y2="12.8245" gradientUnits="userSpaceOnUse">
<stop stop-color="#37BDFF"/>
<stop offset="0.25" stop-color="#26C6F4"/>
<stop offset="0.5" stop-color="#15D0E9"/>
<stop offset="0.75" stop-color="#3BD6DF"/>
<stop offset="1" stop-color="#62DCD4"/>
</linearGradient>
<linearGradient id="paint1_linear_611_7417" x1="7.53989" y1="14.4857" x2="7.40867" y2="4.2081" gradientUnits="userSpaceOnUse">
<stop stop-color="#1B48EF"/>
<stop offset="0.5" stop-color="#2080F1"/>
<stop offset="1" stop-color="#26B8F4"/>
</linearGradient>
<linearGradient id="paint2_linear_611_7417" x1="9.98756" y1="14.0588" x2="20.2325" y2="14.0588" gradientUnits="userSpaceOnUse">
<stop stop-color="#39D2FF"/>
<stop offset="0.5" stop-color="#248FFA"/>
<stop offset="1" stop-color="#104CF5"/>
</linearGradient>
<linearGradient id="paint3_linear_611_7417" x1="9.98756" y1="14.0588" x2="20.2325" y2="14.0588" gradientUnits="userSpaceOnUse">
<stop stop-color="white"/>
<stop offset="1"/>
</linearGradient>
<clipPath id="clip0_611_7417">
<rect width="20" height="20" fill="white"/>
</clipPath>
<clipPath id="clip1_611_7417">
<rect width="10" height="13" fill="white" transform="translate(5 3.5)"/>
</clipPath>
</defs>
</svg>
