<svg width="20" height="20" viewBox="0 0 20 20" fill="none" xmlns="http://www.w3.org/2000/svg">
<g clip-path="url(#clip0_64_6966)">
<path d="M19.7007 12.4191C18.3649 17.7763 12.9384 21.0365 7.58001 19.7006C2.22382 18.365 -1.03684 12.9388 0.29955 7.58198C1.63469 2.22422 7.06121 -1.03637 12.418 0.299246C17.7761 1.63486 21.0364 7.06168 19.7007 12.4191Z" fill="#F7931A"/>
<path d="M14.4101 8.57527C14.6092 7.24466 13.5959 6.52935 12.2105 6.05217L12.6599 4.24968L11.5626 3.97625L11.125 5.73123C10.8366 5.65935 10.5403 5.59155 10.2459 5.52436L10.6866 3.75781L9.58987 3.48438L9.14014 5.28623C8.90136 5.23185 8.66696 5.17811 8.43944 5.12155L8.44069 5.11592L6.92741 4.73811L6.63551 5.90997C6.63551 5.90997 7.44965 6.09654 7.43246 6.1081C7.87688 6.21903 7.9572 6.51309 7.94376 6.74621L7.43183 8.79964C7.46246 8.80745 7.50216 8.8187 7.54591 8.8362C7.50935 8.82714 7.47028 8.81713 7.42996 8.80745L6.71238 11.684C6.658 11.819 6.52018 12.0215 6.20952 11.9446C6.22046 11.9605 5.41194 11.7455 5.41194 11.7455L4.86719 13.0015L6.29515 13.3574C6.5608 13.424 6.82114 13.4936 7.07742 13.5593L6.62332 15.3824L7.71937 15.6558L8.1691 13.8521C8.46851 13.9333 8.75916 14.0083 9.04357 14.079L8.5954 15.8743L9.6927 16.1477L10.1468 14.328C12.0179 14.6821 13.425 14.5393 14.0172 12.8471C14.4945 11.4846 13.9935 10.6987 13.009 10.1862C13.7259 10.0209 14.266 9.54932 14.4101 8.57527ZM11.9029 12.0905C11.5638 13.453 9.26953 12.7165 8.5257 12.5318L9.12827 10.1165C9.87209 10.3021 12.2573 10.6696 11.9029 12.0905ZM12.2423 8.55557C11.9329 9.79494 10.0234 9.16526 9.40392 9.01088L9.95023 6.82029C10.5697 6.97466 12.5646 7.26277 12.2423 8.55557Z" fill="white"/>
</g>
<defs>
<clipPath id="clip0_64_6966">
<rect width="20" height="20" fill="white"/>
</clipPath>
</defs>
</svg>
