<svg width="50" height="28" viewBox="0 0 50 28" fill="none" xmlns="http://www.w3.org/2000/svg">
<g id="card_logo">
<path id="path4" d="M18.9843 6.2828L12.4382 21.758H8.16741L4.94607 9.40808C4.7505 8.6474 4.58044 8.36873 3.98566 8.04825C3.01457 7.52626 1.41093 7.03651 0 6.73255L0.0958326 6.2828H6.97054C7.84683 6.2828 8.63459 6.86079 8.83355 7.86066L10.5348 16.8154L14.7395 6.28254H18.9843V6.2828ZM35.718 16.7055C35.7352 12.6211 30.0181 12.3961 30.0574 10.5715C30.0696 10.0163 30.6032 9.42588 31.7712 9.27519C32.3501 9.2001 33.9451 9.14282 35.7542 9.96775L36.4639 6.6861C35.4917 6.33647 34.241 6 32.6847 6C28.6913 6 25.8809 8.10347 25.8572 11.1155C25.8314 13.3433 27.8631 14.5865 29.3939 15.3268C30.9686 16.0849 31.497 16.5721 31.491 17.2502C31.4798 18.2882 30.235 18.7465 29.0717 18.7645C27.041 18.7955 25.8626 18.2201 24.9233 17.7874L24.191 21.1777C25.135 21.6068 26.8775 21.9812 28.684 22C32.9285 22 35.705 19.9226 35.718 16.7055ZM46.2633 21.758H50L46.7383 6.2828H43.2894C42.5138 6.2828 41.8597 6.73023 41.5701 7.41814L35.5074 21.758H39.7498L40.592 19.4465H45.7755L46.2633 21.758ZM41.7552 16.2748L43.8818 10.4645L45.1058 16.2748H41.7552ZM24.7569 6.2828L21.416 21.758H17.3759L20.7181 6.2828H24.7569Z" fill="white"/>
</g>
</svg>
