<svg width="20" height="20" viewBox="0 0 20 20" fill="none" xmlns="http://www.w3.org/2000/svg">
<path fill-rule="evenodd" clip-rule="evenodd" d="M1.73223 3.73223C2.20107 3.26339 2.83696 3 3.5 3H16C16.663 3 17.2989 3.26339 17.7678 3.73223C18.2366 4.20107 18.5 4.83696 18.5 5.5V6.125H1V5.5C1 4.83696 1.26339 4.20107 1.73223 3.73223ZM1 8H18.5V14.25C18.5 14.913 18.2366 15.5489 17.7678 16.0178C17.2989 16.4866 16.663 16.75 16 16.75H3.5C2.83696 16.75 2.20107 16.4866 1.73223 16.0178C1.26339 15.5489 1 14.913 1 14.25V8ZM3.68306 10.6831C3.56585 10.8003 3.5 10.9592 3.5 11.125C3.5 11.2908 3.56585 11.4497 3.68306 11.5669C3.80027 11.6842 3.95924 11.75 4.125 11.75H9.125C9.29076 11.75 9.44973 11.6842 9.56694 11.5669C9.68415 11.4497 9.75 11.2908 9.75 11.125C9.75 10.9592 9.68415 10.8003 9.56694 10.6831C9.44973 10.5658 9.29076 10.5 9.125 10.5H4.125C3.95924 10.5 3.80027 10.5658 3.68306 10.6831ZM3.68306 13.1831C3.80027 13.0658 3.95924 13 4.125 13H6.625C6.79076 13 6.94973 13.0658 7.06694 13.1831C7.18415 13.3003 7.25 13.4592 7.25 13.625C7.25 13.7908 7.18415 13.9497 7.06694 14.0669C6.94973 14.1842 6.79076 14.25 6.625 14.25H4.125C3.95924 14.25 3.80027 14.1842 3.68306 14.0669C3.56585 13.9497 3.5 13.7908 3.5 13.625C3.5 13.4592 3.56585 13.3003 3.68306 13.1831Z" fill="white"/>
</svg>
