<svg width="32" height="32" viewBox="0 0 32 32" fill="none" xmlns="http://www.w3.org/2000/svg">
<g id="icons/cart_active">
<path id="Subtract" fill-rule="evenodd" clip-rule="evenodd" d="M27.8151 16.812C26.6457 17.319 25.3556 17.6 23.9999 17.6C18.698 17.6 14.3999 13.3019 14.3999 8C14.3999 7.66231 14.4173 7.32869 14.4514 7H8.92428L8.54115 4.82625C8.5003 4.59471 8.37917 4.38496 8.19903 4.23385C8.01889 4.08275 7.79127 3.99995 7.55615 4H3.55615C3.29094 4 3.03658 4.10536 2.84905 4.29289C2.66151 4.48043 2.55615 4.73478 2.55615 5C2.55615 5.26522 2.66151 5.51957 2.84905 5.70711C3.03658 5.89464 3.29094 6 3.55615 6H6.7174L9.57115 22.1737C9.612 22.4053 9.73314 22.615 9.91327 22.7661C10.0934 22.9173 10.321 23 10.5562 23H26.5562C26.8214 23 27.0757 22.8946 27.2633 22.7071C27.4508 22.5196 27.5562 22.2652 27.5562 22C27.5562 21.7348 27.4508 21.4804 27.2633 21.2929C27.0757 21.1054 26.8214 21 26.5562 21H11.3949L11.0424 19H26.1462C26.4929 18.9996 26.8289 18.8793 27.0973 18.6596C27.3656 18.4399 27.5498 18.1343 27.6187 17.7944L27.8151 16.812ZM13.5562 26C13.5562 27.1046 12.6607 28 11.5562 28C10.4516 28 9.55615 27.1046 9.55615 26C9.55615 24.8954 10.4516 24 11.5562 24C12.6607 24 13.5562 24.8954 13.5562 26ZM27.5562 26C27.5562 27.1046 26.6607 28 25.5562 28C24.4516 28 23.5562 27.1046 23.5562 26C23.5562 24.8954 24.4516 24 25.5562 24C26.6607 24 27.5562 24.8954 27.5562 26Z" fill="white"/>
<circle id="Ellipse 1480" cx="24.0001" cy="7.99998" r="6.4" fill="#A0F900"/>
</g>
</svg>
