<svg width="32" height="32" viewBox="0 0 32 32" fill="none" xmlns="http://www.w3.org/2000/svg">
<g id="icons/cart">
<path id="Union" fill-rule="evenodd" clip-rule="evenodd" d="M28.5851 7.14358C28.7857 7.2385 28.9627 7.37691 29.1032 7.54875C29.2443 7.72029 29.3455 7.92102 29.3995 8.13643C29.4536 8.35184 29.4591 8.57656 29.4157 8.79438L27.6157 17.7944C27.5469 18.1343 27.3627 18.4399 27.0943 18.6596C26.826 18.8793 26.49 18.9996 26.1432 19H11.0395L11.392 21H26.5532C26.8184 21 27.0728 21.1054 27.2603 21.2929C27.4479 21.4804 27.5532 21.7348 27.5532 22C27.5532 22.2652 27.4479 22.5196 27.2603 22.7071C27.0728 22.8946 26.8184 23 26.5532 23H10.5532C10.3181 23 10.0905 22.9172 9.91035 22.7661C9.73021 22.615 9.60908 22.4053 9.56822 22.1737L6.71447 6H3.55322C3.28801 6 3.03365 5.89464 2.84612 5.70711C2.65858 5.51957 2.55322 5.26522 2.55322 5C2.55322 4.73478 2.65858 4.48043 2.84612 4.29289C3.03365 4.10536 3.28801 4 3.55322 4H7.55322C7.78834 3.99995 8.01596 4.08275 8.1961 4.23385C8.37624 4.38496 8.49737 4.59471 8.53822 4.82625L8.92135 7H27.9432C28.1652 6.99962 28.3844 7.04867 28.5851 7.14358ZM11.5532 28C12.6578 28 13.5532 27.1046 13.5532 26C13.5532 24.8954 12.6578 24 11.5532 24C10.4487 24 9.55322 24.8954 9.55322 26C9.55322 27.1046 10.4487 28 11.5532 28ZM25.5532 28C26.6578 28 27.5532 27.1046 27.5532 26C27.5532 24.8954 26.6578 24 25.5532 24C24.4487 24 23.5532 24.8954 23.5532 26C23.5532 27.1046 24.4487 28 25.5532 28Z" fill="white"/>
</g>
</svg>
