<svg width="20" height="21" viewBox="0 0 20 21" fill="none" xmlns="http://www.w3.org/2000/svg">
<g clip-path="url(#clip0_23_8774)">
<path d="M16.6147 7.16642H17.4997C17.9417 7.16642 18.3656 7.34202 18.6782 7.65458C18.9907 7.96714 19.1663 8.39106 19.1663 8.83309V12.1664C19.1663 12.6084 18.9907 13.0324 18.6782 13.3449C18.3656 13.6575 17.9417 13.8331 17.4997 13.8331H16.6147C16.4115 15.4442 15.6274 16.9257 14.4095 17.9998C13.1915 19.0738 11.6235 19.6664 9.99967 19.6664V17.9998C11.3258 17.9998 12.5975 17.473 13.5352 16.5353C14.4729 15.5976 14.9997 14.3258 14.9997 12.9998V7.99975C14.9997 6.67367 14.4729 5.4019 13.5352 4.46422C12.5975 3.52654 11.3258 2.99975 9.99967 2.99975C8.67359 2.99975 7.40182 3.52654 6.46414 4.46422C5.52646 5.4019 4.99967 6.67367 4.99967 7.99975V13.8331H2.49967C2.05765 13.8331 1.63372 13.6575 1.32116 13.3449C1.0086 13.0324 0.833008 12.6084 0.833008 12.1664V8.83309C0.833008 8.39106 1.0086 7.96714 1.32116 7.65458C1.63372 7.34202 2.05765 7.16642 2.49967 7.16642H3.38467C3.58803 5.5555 4.37224 4.07415 5.59015 3.00032C6.80806 1.92649 8.37597 1.33398 9.99967 1.33398C11.6234 1.33398 13.1913 1.92649 14.4092 3.00032C15.6271 4.07415 16.4113 5.5555 16.6147 7.16642ZM2.49967 8.83309V12.1664H3.33301V8.83309H2.49967ZM16.6663 8.83309V12.1664H17.4997V8.83309H16.6663ZM6.46634 13.6539L7.34967 12.2406C8.1439 12.7381 9.06248 13.0013 9.99967 12.9998C10.9369 13.0013 11.8554 12.7381 12.6497 12.2406L13.533 13.6539C12.4741 14.3174 11.2493 14.6683 9.99967 14.6664C8.75006 14.6683 7.52529 14.3174 6.46634 13.6539Z" fill="#09121F"/>
</g>
<defs>
<clipPath id="clip0_23_8774">
<rect width="20" height="20" fill="white" transform="translate(0 0.5)"/>
</clipPath>
</defs>
</svg>
