<svg width="24" height="24" viewBox="0 0 24 24" fill="none" xmlns="http://www.w3.org/2000/svg">
<g id="icons/copy">
<path id="Union" fill-rule="evenodd" clip-rule="evenodd" d="M5.24961 1.34998L5.24695 1.34998C4.21425 1.35304 3.22472 1.76463 2.49449 2.49486C1.76426 3.22509 1.35266 4.21462 1.34961 5.24732V15.375L1.34961 15.3775C1.35227 16.3109 1.72423 17.2053 2.38424 17.8653C3.04425 18.5254 3.93866 18.8973 4.87205 18.9L4.87461 18.9H5.09961V19.0781C5.09961 21.0508 6.69879 22.65 8.67148 22.65H19.0777C21.0504 22.65 22.6496 21.0508 22.6496 19.0781V8.67185C22.6496 6.69916 21.0504 5.09998 19.0777 5.09998H18.8951L18.8994 4.89373L18.8996 4.87242C18.8969 3.93903 18.525 3.04462 17.865 2.38461C17.205 1.7246 16.3106 1.35264 15.3772 1.34998L5.24961 1.34998ZM17.9804 6.89998C17.9778 6.89999 17.9753 6.89999 17.9727 6.89998H8.67148C7.6929 6.89998 6.89961 7.69327 6.89961 8.67185V18V19.0781C6.89961 20.0567 7.6929 20.85 8.67148 20.85H19.0777C20.0563 20.85 20.8496 20.0567 20.8496 19.0781V8.67185C20.8496 7.69327 20.0563 6.89998 19.0777 6.89998H17.9804ZM5.09961 17.1V8.67185C5.09961 6.69916 6.69879 5.09998 8.67148 5.09998H17.0947L17.0996 4.86802C17.0958 4.41368 16.9136 3.97886 16.5922 3.65741C16.2688 3.33398 15.8306 3.15158 15.3732 3.14998H5.25106C4.69434 3.15194 4.16096 3.37397 3.76728 3.76765C3.3736 4.16133 3.15157 4.69471 3.14961 5.25143V15.3736C3.15121 15.8309 3.33361 16.2691 3.65704 16.5926C3.98048 16.916 4.4187 17.0984 4.87608 17.1H5.09961Z" fill="white"/>
</g>
</svg>
