<svg width="20" height="21" viewBox="0 0 20 21" fill="none" xmlns="http://www.w3.org/2000/svg">
<g id="icons/filter">
<path id="Vector" d="M11.5616 18.625C11.4613 18.6249 11.3617 18.6087 11.2667 18.577L8.13579 17.5352C7.9496 17.4726 7.78786 17.3529 7.67356 17.1932C7.55925 17.0334 7.4982 16.8417 7.49907 16.6453V11.9887C7.49822 11.9868 7.49703 11.9851 7.49556 11.9836L0.907667 4.31016C0.761588 4.13998 0.667411 3.93145 0.636318 3.70934C0.605224 3.48723 0.63852 3.26086 0.732252 3.05711C0.825983 2.85336 0.976214 2.68079 1.16511 2.55988C1.354 2.43897 1.57362 2.3748 1.7979 2.375H18.2022C18.4265 2.3748 18.6461 2.43897 18.835 2.55988C19.0239 2.68079 19.1741 2.85336 19.2678 3.05711C19.3616 3.26086 19.3949 3.48723 19.3638 3.70934C19.3327 3.93145 19.2385 4.13998 19.0924 4.31016L12.5026 11.9844C12.5012 11.9859 12.5001 11.9876 12.4991 11.9895V17.6875C12.4994 17.8107 12.4754 17.9328 12.4284 18.0467C12.3815 18.1606 12.3124 18.2641 12.2253 18.3512C12.1382 18.4383 12.0347 18.5074 11.9208 18.5544C11.8069 18.6014 11.6848 18.6254 11.5616 18.625Z" fill="white"/>
</g>
</svg>

