<svg width="20" height="21" viewBox="0 0 20 21" fill="none" xmlns="http://www.w3.org/2000/svg">
<g id="icons/filter_active">
<path id="Subtract" fill-rule="evenodd" clip-rule="evenodd" d="M13.1641 11.214C10.7484 10.4384 9 8.17344 9 5.50008C9 4.35519 9.32067 3.28519 9.87709 2.375H1.7979C1.57362 2.3748 1.354 2.43897 1.16511 2.55988C0.976214 2.68079 0.825983 2.85336 0.732252 3.05711C0.63852 3.26086 0.605224 3.48723 0.636318 3.70934C0.667411 3.93145 0.761588 4.13998 0.907667 4.31016L7.49556 11.9836C7.49703 11.9851 7.49822 11.9868 7.49907 11.9887V16.6453C7.4982 16.8417 7.55925 17.0334 7.67356 17.1932C7.78786 17.3529 7.9496 17.4726 8.13579 17.5352L11.2667 18.577C11.3617 18.6087 11.4613 18.6249 11.5616 18.625C11.6848 18.6254 11.8069 18.6014 11.9208 18.5544C12.0347 18.5074 12.1382 18.4383 12.2253 18.3512C12.3124 18.2641 12.3815 18.1606 12.4284 18.0467C12.4754 17.9328 12.4994 17.8107 12.4991 17.6875V11.9895C12.5001 11.9876 12.5012 11.9859 12.5026 11.9844L13.1641 11.214Z" fill="white"/>
<circle id="Ellipse 1480" cx="15" cy="5.5" r="4" fill="#A0F900"/>
</g>
</svg>