<svg width="663" height="30" viewBox="0 0 663 30" fill="none" xmlns="http://www.w3.org/2000/svg">
<rect x="0.306641" y="-49" width="13" height="112" transform="rotate(20 0.306641 -49)" fill="white" fill-opacity="0.3"/>
<rect x="26.8281" y="-49" width="13" height="112" transform="rotate(20 26.8281 -49)" fill="white" fill-opacity="0.3"/>
<rect x="53.3516" y="-49" width="13" height="112" transform="rotate(20 53.3516 -49)" fill="white" fill-opacity="0.3"/>
<rect x="79.873" y="-49" width="13" height="112" transform="rotate(20 79.873 -49)" fill="white" fill-opacity="0.3"/>
<rect x="106.395" y="-49" width="13" height="112" transform="rotate(20 106.395 -49)" fill="white" fill-opacity="0.3"/>
<rect x="132.918" y="-49" width="13" height="112" transform="rotate(20 132.918 -49)" fill="white" fill-opacity="0.3"/>
<rect x="159.439" y="-49" width="13" height="112" transform="rotate(20 159.439 -49)" fill="white" fill-opacity="0.3"/>
<rect x="185.963" y="-49" width="13" height="112" transform="rotate(20 185.963 -49)" fill="white" fill-opacity="0.3"/>
<rect x="212.484" y="-49" width="13" height="112" transform="rotate(20 212.484 -49)" fill="white" fill-opacity="0.3"/>
<rect x="239.006" y="-49" width="13" height="112" transform="rotate(20 239.006 -49)" fill="white" fill-opacity="0.3"/>
<rect x="265.529" y="-49" width="13" height="112" transform="rotate(20 265.529 -49)" fill="white" fill-opacity="0.3"/>
<rect x="292.051" y="-49" width="13" height="112" transform="rotate(20 292.051 -49)" fill="white" fill-opacity="0.3"/>
<rect x="318.574" y="-49" width="13" height="112" transform="rotate(20 318.574 -49)" fill="white" fill-opacity="0.3"/>
<rect x="345.096" y="-49" width="13" height="112" transform="rotate(20 345.096 -49)" fill="white" fill-opacity="0.3"/>
<rect x="371.617" y="-49" width="13" height="112" transform="rotate(20 371.617 -49)" fill="white" fill-opacity="0.3"/>
<rect x="398.141" y="-49" width="13" height="112" transform="rotate(20 398.141 -49)" fill="white" fill-opacity="0.3"/>
<rect x="424.662" y="-49" width="13" height="112" transform="rotate(20 424.662 -49)" fill="white" fill-opacity="0.3"/>
<rect x="451.184" y="-49" width="13" height="112" transform="rotate(20 451.184 -49)" fill="white" fill-opacity="0.3"/>
<rect x="477.707" y="-49" width="13" height="112" transform="rotate(20 477.707 -49)" fill="white" fill-opacity="0.3"/>
<rect x="504.229" y="-49" width="13" height="112" transform="rotate(20 504.229 -49)" fill="white" fill-opacity="0.3"/>
<rect x="530.752" y="-49" width="13" height="112" transform="rotate(20 530.752 -49)" fill="white" fill-opacity="0.3"/>
<rect x="557.273" y="-49" width="13" height="112" transform="rotate(20 557.273 -49)" fill="white" fill-opacity="0.3"/>
<rect x="583.797" y="-49" width="13" height="112" transform="rotate(20 583.797 -49)" fill="white" fill-opacity="0.3"/>
<rect x="610.318" y="-49" width="13" height="112" transform="rotate(20 610.318 -49)" fill="white" fill-opacity="0.3"/>
<rect x="636.84" y="-49" width="13" height="112" transform="rotate(20 636.84 -49)" fill="white" fill-opacity="0.3"/>
<rect x="663.363" y="-49" width="13" height="112" transform="rotate(20 663.363 -49)" fill="white" fill-opacity="0.3"/>
<rect x="689.885" y="-49" width="13" height="112" transform="rotate(20 689.885 -49)" fill="white" fill-opacity="0.3"/>
</svg>
