<svg width="20" height="20" viewBox="0 0 20 20" fill="none" xmlns="http://www.w3.org/2000/svg">
<g clip-path="url(#clip0_611_7391)">
<rect width="20" height="20" rx="4" fill="white"/>
<path d="M7.91858 5.54527C8.04455 5.2146 8.21777 4.91016 8.47496 4.66347C9.50373 3.66095 11.2043 3.91289 11.9024 5.17261C12.4273 6.12789 12.9837 7.06218 13.5243 8.00697C14.4271 9.57637 15.3404 11.1458 16.2327 12.7204C16.9833 14.0379 16.1697 15.7017 14.6791 15.9274C13.7658 16.0639 12.9102 15.644 12.4378 14.8252C11.6452 13.4447 10.8474 12.0643 10.0549 10.6891C10.0391 10.6576 10.0181 10.6314 9.99712 10.6051C9.91313 10.5369 9.87639 10.4372 9.8239 10.3479C9.47223 9.72858 9.11006 9.11447 8.75839 8.50036C8.53269 8.10145 8.2965 7.70779 8.0708 7.30888C7.86609 6.95196 7.77162 6.56354 7.78211 6.15414C7.79786 5.94418 7.8241 5.73423 7.91858 5.54527Z" fill="#3C8BD9"/>
<path d="M7.91858 5.54523C7.87134 5.73418 7.82935 5.92314 7.81885 6.1226C7.80311 6.5635 7.91333 6.97291 8.13378 7.35607C8.71115 8.3481 9.28852 9.34537 9.86065 10.3426C9.91313 10.4319 9.95512 10.5211 10.0076 10.6051C9.69268 11.151 9.37775 11.6916 9.05758 12.2375C8.61667 12.9986 8.17577 13.7649 7.72962 14.526C7.70863 14.526 7.70338 14.5155 7.69813 14.4997C7.69288 14.4577 7.70863 14.421 7.71913 14.379C7.93433 13.5917 7.75587 12.8936 7.21524 12.2952C6.88456 11.933 6.46466 11.7283 5.98177 11.6601C5.35191 11.5709 4.79553 11.7336 4.29689 12.1272C4.20766 12.1955 4.14993 12.2952 4.04495 12.3477C4.02396 12.3477 4.01346 12.3372 4.00821 12.3215C4.26015 11.8858 4.50685 11.4502 4.75879 11.0145C5.79806 9.2089 6.83732 7.40331 7.88184 5.60296C7.89234 5.58197 7.90808 5.56622 7.91858 5.54523Z" fill="#FABC04"/>
<path d="M4.02921 12.3372C4.12893 12.248 4.22341 12.1535 4.32839 12.0695C5.60385 11.0618 7.51967 11.7913 7.79786 13.387C7.86609 13.7701 7.82935 14.1376 7.71388 14.505C7.70863 14.5365 7.70338 14.5627 7.69288 14.5942C7.64564 14.6782 7.60365 14.7674 7.55116 14.8514C7.08402 15.623 6.39642 16.0061 5.49363 15.9484C4.45961 15.8749 3.64604 15.0981 3.50432 14.0693C3.43609 13.5707 3.53582 13.1035 3.79301 12.6731C3.8455 12.5787 3.90848 12.4947 3.96622 12.4002C3.99246 12.3792 3.98197 12.3372 4.02921 12.3372Z" fill="#34A852"/>
<path d="M4.02921 12.3372C4.00821 12.3582 4.00821 12.395 3.97147 12.4002C3.96622 12.3635 3.98722 12.3425 4.00821 12.3162L4.02921 12.3372Z" fill="#FABC04"/>
<path d="M7.69289 14.5942C7.67189 14.5575 7.69289 14.5312 7.71388 14.505C7.71913 14.5103 7.72963 14.5208 7.73488 14.526L7.69289 14.5942Z" fill="#E1C025"/>
</g>
<defs>
<clipPath id="clip0_611_7391">
<rect width="20" height="20" fill="white"/>
</clipPath>
</defs>
</svg>
