<svg width="20" height="20" viewBox="0 0 20 20" fill="none" xmlns="http://www.w3.org/2000/svg">
<g clip-path="url(#clip0_191_12001)">
<path d="M14.7133 12.3568L13.535 11.1785L14.7133 10.0002C15.0229 9.69063 15.2684 9.32316 15.4359 8.91873C15.6034 8.5143 15.6897 8.08083 15.6897 7.64308C15.6897 7.20533 15.6034 6.77187 15.4359 6.36744C15.2684 5.96301 15.0229 5.59554 14.7133 5.286C14.4038 4.97646 14.0363 4.73093 13.6319 4.56341C13.2275 4.39589 12.794 4.30966 12.3562 4.30966C11.9185 4.30966 11.485 4.39589 11.0806 4.56341C10.6762 4.73093 10.3087 4.97646 9.99916 5.286L8.82082 6.46433L7.64249 5.286L8.82082 4.10767C9.76108 3.1826 11.0288 2.66655 12.3478 2.67192C13.6668 2.67729 14.9303 3.20365 15.863 4.13634C16.7957 5.06904 17.322 6.3325 17.3274 7.65152C17.3328 8.97053 16.8167 10.2382 15.8917 11.1785L14.7133 12.3568ZM12.3558 14.7143L11.1775 15.8927C10.7146 16.3632 10.1631 16.7374 9.55488 16.9937C8.94664 17.25 8.29367 17.3833 7.63364 17.386C6.97361 17.3887 6.31958 17.2607 5.70927 17.0093C5.09897 16.758 4.54446 16.3883 4.07775 15.9216C3.61103 15.4549 3.24134 14.9004 2.99 14.2901C2.73865 13.6797 2.61064 13.0257 2.61332 12.3657C2.61601 11.7057 2.74935 11.0527 3.00566 10.4444C3.26196 9.83621 3.63616 9.28473 4.10666 8.82183L5.28499 7.6435L6.46332 8.82183L5.28499 10.0002C4.97545 10.3097 4.72992 10.6772 4.5624 11.0816C4.39488 11.486 4.30865 11.9195 4.30865 12.3572C4.30865 12.795 4.39488 13.2285 4.5624 13.6329C4.72992 14.0373 4.97545 14.4048 5.28499 14.7143C5.59453 15.0239 5.962 15.2694 6.36643 15.4369C6.77086 15.6044 7.20432 15.6907 7.64207 15.6907C8.07982 15.6907 8.51329 15.6044 8.91772 15.4369C9.32215 15.2694 9.68962 15.0239 9.99916 14.7143L11.1775 13.536L12.3558 14.7143ZM12.3558 6.46433L13.535 7.6435L7.64249 13.5352L6.46332 12.3568L12.3558 6.46517V6.46433Z" fill="white" fill-opacity="0.5"/>
</g>
<defs>
<clipPath id="clip0_191_12001">
<rect width="20" height="20" fill="white"/>
</clipPath>
</defs>
</svg>
