<svg width="20" height="20" viewBox="0 0 20 20" fill="none" xmlns="http://www.w3.org/2000/svg">
<g clip-path="url(#clip0_48_3801)">
<rect width="20" height="20" rx="4" fill="url(#paint0_linear_48_3801)"/>
<path d="M8.33563 10.0256C8.33563 9.10437 9.08204 8.35734 10.003 8.35734C10.924 8.35734 11.6708 9.10437 11.6708 10.0256C11.6708 10.9469 10.924 11.6939 10.003 11.6939C9.08204 11.6939 8.33563 10.9469 8.33563 10.0256ZM7.43405 10.0256C7.43405 11.4449 8.58418 12.5953 10.003 12.5953C11.4219 12.5953 12.572 11.4449 12.572 10.0256C12.572 8.60636 11.4219 7.4559 10.003 7.4559C8.58418 7.4559 7.43405 8.60636 7.43405 10.0256ZM12.0734 7.35401C12.0733 7.47279 12.1085 7.58891 12.1744 7.68769C12.2403 7.78647 12.3341 7.86348 12.4437 7.90898C12.5534 7.95448 12.6741 7.96642 12.7906 7.94329C12.9071 7.92017 13.0141 7.86301 13.0981 7.77906C13.1821 7.69511 13.2393 7.58813 13.2625 7.47164C13.2857 7.35516 13.2739 7.23441 13.2285 7.12466C13.1831 7.01491 13.1062 6.92109 13.0075 6.85506C12.9088 6.78903 12.7927 6.75377 12.674 6.75372H12.6737C12.5146 6.75379 12.3619 6.81705 12.2494 6.92961C12.1368 7.04216 12.0735 7.1948 12.0734 7.35401ZM7.98182 14.0991C7.49405 14.0769 7.22893 13.9956 7.05274 13.927C6.81916 13.836 6.6525 13.7277 6.47728 13.5526C6.30205 13.3776 6.19359 13.2111 6.10305 12.9774C6.03437 12.8012 5.95312 12.536 5.93095 12.0481C5.90669 11.5206 5.90185 11.3621 5.90185 10.0257C5.90185 8.68924 5.90709 8.53122 5.93095 8.00327C5.95316 7.51535 6.03501 7.2506 6.10305 7.07392C6.19399 6.84027 6.30229 6.67357 6.47728 6.49829C6.65226 6.32302 6.81876 6.21452 7.05274 6.12396C7.22885 6.05526 7.49405 5.97399 7.98182 5.95181C8.50917 5.92754 8.66759 5.9227 10.003 5.9227C11.3385 5.9227 11.497 5.92794 12.0248 5.95181C12.5126 5.97403 12.7773 6.0559 12.9539 6.12396C13.1875 6.21452 13.3542 6.32326 13.5294 6.49829C13.7046 6.67333 13.8127 6.84027 13.9036 7.07392C13.9723 7.25008 14.0535 7.51535 14.0757 8.00327C14.1 8.53122 14.1048 8.68924 14.1048 10.0257C14.1048 11.3621 14.1 11.5201 14.0757 12.0481C14.0535 12.536 13.9719 12.8012 13.9036 12.9774C13.8127 13.2111 13.7044 13.3778 13.5294 13.5526C13.3544 13.7275 13.1875 13.836 12.9539 13.927C12.7778 13.9957 12.5126 14.0769 12.0248 14.0991C11.4975 14.1234 11.3391 14.1282 10.003 14.1282C8.66699 14.1282 8.50901 14.1234 7.98182 14.0991ZM7.94039 5.05149C7.40779 5.07575 7.04386 5.16022 6.72603 5.28393C6.39687 5.41169 6.11822 5.58308 5.83977 5.86117C5.56133 6.13925 5.39042 6.41842 5.26271 6.74767C5.13903 7.06579 5.05458 7.42964 5.03033 7.96239C5.00567 8.49599 5.00003 8.66658 5.00003 10.0256C5.00003 11.3847 5.00567 11.5553 5.03033 12.0889C5.05458 12.6216 5.13903 12.9855 5.26271 13.3036C5.39042 13.6326 5.56137 13.9121 5.83977 14.1901C6.11818 14.468 6.39687 14.6392 6.72603 14.7673C7.04446 14.891 7.40779 14.9755 7.94039 14.9998C8.47411 15.024 8.64438 15.0301 10.003 15.0301C11.3617 15.0301 11.5322 15.0244 12.0657 14.9998C12.5983 14.9755 12.962 14.891 13.28 14.7673C13.609 14.6392 13.8878 14.4682 14.1663 14.1901C14.4447 13.912 14.6153 13.6326 14.7434 13.3036C14.867 12.9855 14.9519 12.6216 14.9757 12.0889C15 11.5549 15.0056 11.3847 15.0056 10.0256C15.0056 8.66658 15 8.49599 14.9757 7.96239C14.9515 7.4296 14.867 7.06559 14.7434 6.74767C14.6153 6.41862 14.4443 6.13969 14.1663 5.86117C13.8883 5.58264 13.609 5.41169 13.2804 5.28393C12.962 5.16022 12.5983 5.07535 12.0661 5.05149C11.5326 5.02722 11.3621 5.02118 10.0034 5.02118C8.64478 5.02118 8.47411 5.02682 7.94039 5.05149Z" fill="white"/>
</g>
<defs>
<linearGradient id="paint0_linear_48_3801" x1="19.6156" y1="20" x2="-0.384399" y2="-5.38344e-07" gradientUnits="userSpaceOnUse">
<stop stop-color="#FBE18A"/>
<stop offset="0.21" stop-color="#FCBB45"/>
<stop offset="0.38" stop-color="#F75274"/>
<stop offset="0.52" stop-color="#D53692"/>
<stop offset="0.74" stop-color="#8F39CE"/>
<stop offset="1" stop-color="#5B4FE9"/>
</linearGradient>
<clipPath id="clip0_48_3801">
<rect width="20" height="20" fill="white"/>
</clipPath>
</defs>
</svg>
