<svg width="20" height="20" viewBox="0 0 20 20" fill="none" xmlns="http://www.w3.org/2000/svg">
<g clip-path="url(#clip0_611_7378)">
<rect width="20" height="20" rx="4" fill="#006699"/>
<path d="M7.5015 14.9502V8.35374H5.3109V14.9502H7.50173H7.5015ZM6.40666 7.45326C7.1704 7.45326 7.64589 6.94673 7.64589 6.31372C7.63159 5.66628 7.1704 5.17389 6.42118 5.17389C5.67144 5.17389 5.18178 5.66628 5.18178 6.31366C5.18178 6.94668 5.65709 7.4532 6.3923 7.4532H6.40649L6.40666 7.45326ZM8.71403 14.9502H10.9045V11.2668C10.9045 11.0699 10.9188 10.8725 10.9766 10.7319C11.1349 10.3378 11.4953 9.92992 12.1006 9.92992C12.8931 9.92992 13.2103 10.5348 13.2103 11.4216V14.9502H15.4007V11.168C15.4007 9.14192 14.3201 8.19909 12.8789 8.19909C11.6973 8.19909 11.1784 8.86009 10.89 9.3103H10.9046V8.35396H8.71414C8.74273 8.97279 8.71397 14.9504 8.71397 14.9504L8.71403 14.9502Z" fill="white"/>
</g>
<defs>
<clipPath id="clip0_611_7378">
<rect width="20" height="20" fill="white"/>
</clipPath>
</defs>
</svg>
