<svg width="20" height="20" viewBox="0 0 20 20" fill="none" xmlns="http://www.w3.org/2000/svg">
<path fill-rule="evenodd" clip-rule="evenodd" d="M2 5.75C2 5.33579 2.33579 5 2.75 5H16.5C16.9142 5 17.25 5.33579 17.25 5.75C17.25 6.16421 16.9142 6.5 16.5 6.5H2.75C2.33579 6.5 2 6.16421 2 5.75ZM2 10.125C2 9.71079 2.33579 9.375 2.75 9.375H16.5C16.9142 9.375 17.25 9.71079 17.25 10.125C17.25 10.5392 16.9142 10.875 16.5 10.875H2.75C2.33579 10.875 2 10.5392 2 10.125ZM2 14.5C2 14.0858 2.33579 13.75 2.75 13.75H16.5C16.9142 13.75 17.25 14.0858 17.25 14.5C17.25 14.9142 16.9142 15.25 16.5 15.25H2.75C2.33579 15.25 2 14.9142 2 14.5Z" fill="white"/>
</svg>
