<svg width="20" height="20" viewBox="0 0 20 20" fill="none" xmlns="http://www.w3.org/2000/svg">
<path fill-rule="evenodd" clip-rule="evenodd" d="M10.625 4.16663C10.625 3.82145 10.3452 3.54163 10 3.54163C9.65482 3.54163 9.375 3.82145 9.375 4.16663V9.375H4.16602C3.82084 9.375 3.54102 9.65482 3.54102 10C3.54102 10.3452 3.82084 10.625 4.16602 10.625H9.375V15.8333C9.375 16.1785 9.65482 16.4583 10 16.4583C10.3452 16.4583 10.625 16.1785 10.625 15.8333V10.625H15.8327C16.1779 10.625 16.4577 10.3452 16.4577 10C16.4577 9.65482 16.1779 9.375 15.8327 9.375H10.625V4.16663Z" fill="white"/>
</svg>
