<svg width="20" height="20" viewBox="0 0 20 20" fill="none" xmlns="http://www.w3.org/2000/svg">
<g id="reddit-logo-2436 1" clip-path="url(#clip0_794_15821)">
<g id="Group">
<path id="Vector" d="M9.98926 19.8682C15.4452 19.8682 19.8682 15.4452 19.8682 9.98926C19.8682 4.53329 15.4452 0.110352 9.98926 0.110352C4.53329 0.110352 0.110352 4.53329 0.110352 9.98926C0.110352 15.4452 4.53329 19.8682 9.98926 19.8682Z" fill="#FF4500"/>
<path id="Vector_2" d="M16.5779 9.98942C16.5485 9.19384 15.8805 8.57257 15.0825 8.59957C14.7288 8.61186 14.3925 8.75676 14.1372 8.99978C13.0125 8.23361 11.6914 7.81365 10.3334 7.78423L10.9742 4.70245L13.0885 5.147C13.1473 5.68968 13.6336 6.08265 14.1763 6.02359C14.7189 5.96476 15.1119 5.4785 15.0529 4.93581C14.9938 4.39313 14.5078 4.00017 13.9651 4.05923C13.6531 4.09106 13.3732 4.27283 13.2187 4.54307L10.7975 4.05923C10.633 4.02234 10.4684 4.12552 10.4315 4.29259C10.4315 4.295 10.4315 4.295 10.4315 4.29742L9.70222 7.7254C8.32708 7.74757 6.98882 8.16995 5.84945 8.94094C5.26989 8.39585 4.35642 8.42285 3.81132 9.00483C3.26622 9.58439 3.29323 10.4979 3.8752 11.043C3.98826 11.1485 4.11822 11.2394 4.26311 11.3033C4.25324 11.4482 4.25324 11.5931 4.26311 11.738C4.26311 13.9504 6.84151 15.7504 10.0214 15.7504C13.2013 15.7504 15.7797 13.9528 15.7797 11.738C15.7896 11.5931 15.7896 11.4482 15.7797 11.3033C16.2759 11.0552 16.5878 10.5444 16.5779 9.98942ZM6.69903 10.9791C6.69903 10.434 7.14358 9.98942 7.68868 9.98942C8.23378 9.98942 8.67833 10.434 8.67833 10.9791C8.67833 11.5242 8.23378 11.9687 7.68868 11.9687C7.14117 11.9637 6.69903 11.5242 6.69903 10.9791ZM12.4378 13.7342V13.6949C11.7355 14.2229 10.8761 14.4929 9.99683 14.4562C9.11761 14.4931 8.25836 14.2229 7.55586 13.6949C7.46256 13.5818 7.47969 13.4126 7.59275 13.3193C7.69088 13.2383 7.83094 13.2383 7.9317 13.3193C8.52597 13.7539 9.25043 13.975 9.98695 13.9405C10.7237 13.9798 11.4506 13.7687 12.0521 13.339C12.1601 13.2334 12.3368 13.2359 12.4426 13.3439C12.5482 13.4519 12.5458 13.6286 12.4378 13.7342ZM12.3028 12.0398C12.2857 12.0398 12.271 12.0398 12.2536 12.0398L12.2611 12.003C11.716 12.003 11.2714 11.5584 11.2714 11.0133C11.2714 10.4682 11.716 10.0237 12.2611 10.0237C12.8062 10.0237 13.2507 10.4682 13.2507 11.0133C13.2727 11.5586 12.8479 12.0177 12.3028 12.0398Z" fill="white"/>
</g>
</g>
<defs>
<clipPath id="clip0_794_15821">
<rect width="20" height="20" fill="white"/>
</clipPath>
</defs>
</svg>
