<svg width="20" height="20" viewBox="0 0 20 20" fill="none" xmlns="http://www.w3.org/2000/svg">
<path d="M1.22617 8.71005C1.22617 8.71005 10.0717 4.31967 13.1395 2.77372C14.3155 2.15538 18.3036 0.176548 18.3036 0.176548C18.3036 0.176548 20.1443 -0.689117 19.9909 1.4133C19.9398 2.27905 19.5307 5.30901 19.1217 8.58638C18.5081 13.2242 17.8434 18.2948 17.8434 18.2948C17.8434 18.2948 17.7412 19.717 16.872 19.9644C16.0028 20.2117 14.5711 19.0987 14.3155 18.8513C14.1109 18.6658 10.4807 15.8831 9.15133 14.5227C8.7934 14.1517 8.38439 13.4097 9.20242 12.544C11.0431 10.5033 13.2417 7.96805 14.5711 6.3603C15.1847 5.61822 15.7982 3.8868 13.2417 5.98921C9.61151 9.01926 6.0324 11.8638 6.0324 11.8638C6.0324 11.8638 5.21429 12.4821 3.68041 11.9255C2.14645 11.3691 0.356899 10.627 0.356899 10.627C0.356899 10.627 -0.870153 9.69947 1.22617 8.71005Z" fill="#34AADF"/>
</svg>
