<svg width="20" height="20" viewBox="0 0 20 20" fill="none" xmlns="http://www.w3.org/2000/svg">
<g clip-path="url(#clip0_611_238)">
<rect width="20" height="20" rx="4" fill="black"/>
<path fill-rule="evenodd" clip-rule="evenodd" d="M12.3589 8.31648C13.1301 8.86524 14.0537 9.15844 15 9.15488V7.27786C14.814 7.27838 14.6285 7.25844 14.4468 7.21842V8.71378C13.4984 8.71547 12.5734 8.41891 11.8025 7.86599V11.7264C11.8002 12.3599 11.6266 12.9809 11.3002 13.5236C10.9739 14.0663 10.5068 14.5105 9.94862 14.8091C9.39043 15.1077 8.76192 15.2495 8.12973 15.2196C7.49754 15.1896 6.88523 14.989 6.35774 14.6389C6.84566 15.133 7.4691 15.4711 8.14911 15.6103C8.82913 15.7496 9.53513 15.6837 10.1777 15.4211C10.8203 15.1585 11.3706 14.7109 11.7589 14.1351C12.1471 13.5592 12.356 12.881 12.3589 12.1863V8.31648ZM13.0434 6.40192C12.6512 5.97643 12.4105 5.4331 12.3589 4.8565V4.61249H11.8338C11.8987 4.979 12.0399 5.32774 12.2483 5.63603C12.4567 5.94433 12.7276 6.20528 13.0434 6.40192ZM7.5736 13.1529C7.3916 12.9147 7.28007 12.6302 7.25169 12.3317C7.22332 12.0331 7.27924 11.7326 7.4131 11.4643C7.54696 11.1961 7.75337 10.9708 8.00885 10.8141C8.26434 10.6575 8.55862 10.5758 8.85822 10.5783C9.02362 10.5782 9.18806 10.6036 9.34581 10.6534V8.71378C9.16141 8.68934 8.97543 8.67888 8.78945 8.6825V10.1904C8.40536 10.0689 7.98963 10.0965 7.62496 10.2678C7.26029 10.4391 6.9734 10.7415 6.82135 11.1148C6.6693 11.4882 6.66323 11.9052 6.80436 12.2828C6.94548 12.6605 7.22344 12.9711 7.58297 13.1529H7.5736Z" fill="#EE1D52"/>
<path fill-rule="evenodd" clip-rule="evenodd" d="M11.8022 7.85348C12.5731 8.40639 13.4981 8.70295 14.4465 8.70127V7.20591C13.9061 7.09156 13.4153 6.81034 13.0431 6.40192C12.7273 6.20528 12.4565 5.94433 12.2481 5.63603C12.0397 5.32774 11.8984 4.979 11.8335 4.61249H10.452V12.1863C10.4507 12.5215 10.3446 12.8479 10.1485 13.1197C9.95236 13.3915 9.67614 13.595 9.35859 13.7016C9.04104 13.8083 8.6981 13.8127 8.37791 13.7143C8.05772 13.6159 7.77636 13.4196 7.57332 13.1529C7.25155 12.9904 6.99386 12.7242 6.84183 12.3971C6.6898 12.07 6.6523 11.7013 6.73537 11.3502C6.81844 10.9992 7.01724 10.6865 7.2997 10.4624C7.58216 10.2383 7.9318 10.1161 8.29221 10.1153C8.45757 10.1158 8.62192 10.1411 8.7798 10.1904V8.6825C8.09767 8.69889 7.43516 8.91427 6.8736 9.3022C6.31204 9.69013 5.87587 10.2337 5.61863 10.8663C5.36139 11.4988 5.29428 12.1928 5.42552 12.863C5.55677 13.5331 5.88067 14.1504 6.35746 14.6389C6.88507 14.9915 7.49834 15.1942 8.13195 15.2255C8.76556 15.2568 9.39578 15.1154 9.95549 14.8165C10.5152 14.5177 10.9834 14.0724 11.3103 13.5282C11.6371 12.9841 11.8104 12.3613 11.8116 11.7264L11.8022 7.85348Z" fill="white"/>
<path fill-rule="evenodd" clip-rule="evenodd" d="M14.4467 7.20577V6.80221C13.9504 6.80432 13.4638 6.66547 13.0433 6.40178C13.4145 6.81138 13.9058 7.09283 14.4467 7.20577ZM11.8337 4.61235C11.8337 4.5404 11.8118 4.46532 11.8024 4.39337V4.14935H9.89581V11.7263C9.89415 12.1505 9.72439 12.5568 9.42378 12.8559C9.12317 13.155 8.71627 13.3226 8.29238 13.3217C8.04279 13.323 7.79645 13.2651 7.57349 13.1528C7.77653 13.4194 8.05789 13.6157 8.37808 13.7141C8.69827 13.8125 9.04122 13.8081 9.35877 13.7015C9.67632 13.5948 9.95253 13.3914 10.1486 13.1196C10.3447 12.8478 10.4509 12.5214 10.4522 12.1861V4.61235H11.8337ZM8.77997 8.67923V8.25065C7.99541 8.14397 7.19789 8.30641 6.51737 8.71147C5.83685 9.11654 5.31347 9.74036 5.03253 10.4813C4.75158 11.2222 4.72964 12.0365 4.97027 12.7915C5.21091 13.5464 5.69993 14.1976 6.35764 14.6388C5.88445 14.1491 5.564 13.5321 5.43544 12.8632C5.30687 12.1942 5.37575 11.5022 5.63366 10.8718C5.89157 10.2414 6.32735 9.6998 6.88776 9.3132C7.44816 8.92661 8.10894 8.71175 8.78935 8.69488L8.77997 8.67923Z" fill="#69C9D0"/>
</g>
<defs>
<clipPath id="clip0_611_238">
<rect width="20" height="20" fill="white"/>
</clipPath>
</defs>
</svg>
