<svg width="20" height="20" viewBox="0 0 20 20" fill="none" xmlns="http://www.w3.org/2000/svg">
<path fill-rule="evenodd" clip-rule="evenodd" d="M3.66181 1.08841L0.0149929 9.01336C0.0011157 9.04284 -0.0032819 9.07614 0.00244321 9.10838C0.00816833 9.14063 0.0237158 9.17014 0.046812 9.19259L9.896 18.9567C9.92397 18.9845 9.96124 19 10 19C10.0388 19 10.076 18.9845 10.104 18.9567L19.9532 9.1932C19.9763 9.17075 19.9918 9.14124 19.9976 9.10899C20.0033 9.07675 19.9989 9.04345 19.985 9.01397L16.3382 1.08902C16.3264 1.0624 16.3075 1.03985 16.2837 1.02407C16.2598 1.00829 16.2321 0.999935 16.2038 1.00001H3.79734C3.76891 0.999646 3.74099 1.0078 3.71695 1.02348C3.6929 1.03917 3.67375 1.06171 3.66181 1.08841Z" fill="#50AF95"/>
<path fill-rule="evenodd" clip-rule="evenodd" d="M11.2208 9.45063C11.1526 9.45618 10.8003 9.479 10.0145 9.479C9.38946 9.479 8.94569 9.45864 8.79 9.45063C6.37454 9.33527 4.57162 8.87879 4.57162 8.33224C4.57162 7.78569 6.37454 7.32982 8.79 7.21261V8.99599C8.94796 9.00833 9.40026 9.03732 10.0253 9.03732C10.7753 9.03732 11.1509 9.00339 11.2185 8.99661V7.21385C13.6289 7.33044 15.4278 7.78692 15.4278 8.33224C15.4278 8.87755 13.6294 9.33404 11.2185 9.45001L11.2208 9.45063ZM11.2208 7.0294V5.43356H14.5846V3H5.4262V5.43356H8.78943V7.02879C6.05578 7.16512 4 7.75299 4 8.45746C4 9.16193 6.05578 9.74919 8.78943 9.88614V15H11.2202V9.88429C13.9476 9.74796 16 9.1607 16 8.45685C16 7.753 13.9493 7.16573 11.2202 7.02879L11.2208 7.0294Z" fill="white"/>
</svg>
