<svg width="117" height="58" viewBox="0 0 117 58" fill="none" xmlns="http://www.w3.org/2000/svg"> <path d="M10.2324 39.1982L6.0594 31.532H4.88753V39.1982H0V18.89H8.20305C9.78459 18.89 11.1279 19.1696 12.2331 19.7289C13.3574 20.2882 14.1958 21.0597 14.7483 22.0433C15.3009 23.0076 15.5772 24.0876 15.5772 25.2833C15.5772 26.6334 15.1961 27.8387 14.4339 28.8995C13.6908 29.9602 12.5856 30.7124 11.1184 31.1559L15.7487 39.1982H10.2324ZM4.88753 28.0316H7.91723C8.8128 28.0316 9.47972 27.8098 9.91798 27.3662C10.3753 26.9226 10.6039 26.2958 10.6039 25.4858C10.6039 24.7144 10.3753 24.1069 9.91798 23.6633C9.47972 23.2197 8.8128 22.9979 7.91723 22.9979H4.88753V28.0316Z" fill="white"/> <path d="M42.0007 29.0152C42.0007 27.0094 42.4294 25.2255 43.2869 23.6633C44.1443 22.0818 45.3352 20.8572 46.8596 19.9893C48.4031 19.1021 50.1466 18.6586 52.0901 18.6586C54.472 18.6586 56.5108 19.295 58.2067 20.5679C59.9026 21.8408 61.0363 23.5765 61.608 25.7751H56.2345C55.8344 24.9265 55.2627 24.2805 54.5196 23.8369C53.7955 23.3933 52.9666 23.1715 52.033 23.1715C50.5276 23.1715 49.3081 23.7019 48.3745 24.7626C47.4408 25.8233 46.9739 27.2409 46.9739 29.0152C46.9739 30.7895 47.4408 32.207 48.3745 33.2677C49.3081 34.3285 50.5276 34.8588 52.033 34.8588C52.9666 34.8588 53.7955 34.6371 54.5196 34.1935C55.2627 33.7499 55.8344 33.1038 56.2345 32.2552H61.608C61.0363 34.4538 59.9026 36.1896 58.2067 37.4625C56.5108 38.7161 54.472 39.3429 52.0901 39.3429C50.1466 39.3429 48.4031 38.9089 46.8596 38.041C45.3352 37.1539 44.1443 35.9292 43.2869 34.3671C42.4294 32.8049 42.0007 31.0209 42.0007 29.0152Z" fill="white"/> <path d="M77.0914 39.1982L70.346 30.2302V39.1982H65.4585V18.89H70.346V27.8002L77.0342 18.89H82.7792L75.0049 28.8416L83.065 39.1982H77.0914Z" fill="white"/> <path d="M91.1328 22.8533V26.9612H97.6781V30.7799H91.1328V35.2349H98.5355V39.1982H86.2453V18.89H98.5355V22.8533H91.1328Z" fill="white"/> <path d="M117 18.89V22.8533H111.684V39.1982H106.796V22.8533H101.48V18.89H117Z" fill="white"/> <mask id="mask0_51_182" style="mask-type:alpha" maskUnits="userSpaceOnUse" x="17" y="18" width="23" height="23"> <path d="M28.0813 40.1128L28.073 40.1091L28.0471 40.0945C27.8953 40.0079 27.7447 39.9191 27.5953 39.828C25.7999 38.7225 24.1221 37.4238 22.5896 35.9535C19.8756 33.3293 17 29.4352 17 24.6391C17 21.0603 19.9063 18.2223 23.4141 18.2223C24.3892 18.2173 25.3529 18.4402 26.2334 18.8745C27.1139 19.3087 27.8887 19.943 28.5 20.7303C29.1114 19.9429 29.8864 19.3084 30.7671 18.8742C31.6479 18.44 32.6118 18.2171 33.5871 18.2223C37.0937 18.2223 40 21.0603 40 24.6391C40 29.4364 37.1244 33.3305 34.4104 35.9523C32.878 37.4226 31.2001 38.7213 29.4047 39.8268C29.2553 39.9183 29.1047 40.0075 28.9529 40.0945L28.927 40.1091L28.9187 40.114L28.9152 40.1153C28.7873 40.1855 28.6447 40.2222 28.5 40.2222C28.3553 40.2222 28.2127 40.1855 28.0848 40.1153L28.0813 40.1128Z" fill="black"/> </mask> <g mask="url(#mask0_51_182)"> <rect x="15.5996" y="16" width="26" height="13" fill="#005BBB"/> <rect x="15.5996" y="29" width="26" height="13" fill="#FFD500"/> </g> </svg> 